HIERARCHY
ROOT hip
{
  OFFSET 0 0 0
  CHANNELS 6 Xposition Yposition Zposition Zrotation Yrotation Xrotation
  JOINT abdomen
  {
    OFFSET 0 20.6881 -0.73152
    CHANNELS 3 Zrotation Xrotation Yrotation
    JOINT chest
    {
      OFFSET 0 11.7043 -0.48768
      CHANNELS 3 Zrotation Xrotation Yrotation
      JOINT neck
      {
        OFFSET 0 22.1894 -2.19456
        CHANNELS 3 Zrotation Xrotation Yrotation
        JOINT head
        {
          OFFSET -0.24384 7.07133 1.2192
          CHANNELS 3 Zrotation Xrotation Yrotation
          JOINT leftEye
          {
            OFFSET 4.14528 8.04674 8.04672
            CHANNELS 3 Zrotation Xrotation Yrotation
            End Site
            {
              OFFSET 1 0 0
            }
          }
          JOINT rightEye
          {
            OFFSET -3.6576 8.04674 8.04672
            CHANNELS 3 Zrotation Xrotation Yrotation
            End Site
            {
              OFFSET 1 0 0
            }
          }
        }
      }
      JOINT rCollar
      {
        OFFSET -2.68224 19.2634 -4.8768
        CHANNELS 3 Zrotation Xrotation Yrotation
        JOINT rShldr
        {
          OFFSET -8.77824 -1.95073 1.46304
          CHANNELS 3 Zrotation Xrotation Yrotation
          JOINT rForeArm
          {
            OFFSET -28.1742 -1.7115 0.48768
            CHANNELS 3 Zrotation Xrotation Yrotation
            JOINT rHand
            {
              OFFSET -22.5879 0.773209 7.07136
              CHANNELS 3 Zrotation Xrotation Yrotation
              JOINT rThumb1
              {
                OFFSET -1.2192 -0.487915 3.41376
                CHANNELS 3 Zrotation Xrotation Yrotation
                JOINT rThumb2
                {
                  OFFSET -3.37035 -0.52449 3.41376
                  CHANNELS 3 Zrotation Xrotation Yrotation
                  End Site
                  {
                    OFFSET -1.78271 -1.18214 1.43049
                  }
                }
              }
              JOINT rIndex1
              {
                OFFSET -7.75947 0.938293 5.60832
                CHANNELS 3 Zrotation Xrotation Yrotation
                JOINT rIndex2
                {
                  OFFSET -2.54057 -0.884171 1.56538
                  CHANNELS 3 Zrotation Xrotation Yrotation
                  End Site
                  {
                    OFFSET -1.62519 -0.234802 1.16502
                  }
                }
              }
              JOINT rMid1
              {
                OFFSET -8.24714 1.18213 3.41376
                CHANNELS 3 Zrotation Xrotation Yrotation
                JOINT rMid2
                {
                  OFFSET -3.10165 -0.590103 1.0647
                  CHANNELS 3 Zrotation Xrotation Yrotation
                  End Site
                  {
                    OFFSET -2.48547 -0.328903 0.83742
                  }
                }
              }
              JOINT rRing1
              {
                OFFSET -8.82822 0.546677 1.51678
                CHANNELS 3 Zrotation Xrotation Yrotation
                JOINT rRing2
                {
                  OFFSET -2.60934 -0.819778 -0.0198488
                  CHANNELS 3 Zrotation Xrotation Yrotation
                  End Site
                  {
                    OFFSET -2.33842 -0.294052 0.168128
                  }
                }
              }
              JOINT rPinky1
              {
                OFFSET -8.27202 -0.0477905 -0.4584
                CHANNELS 3 Zrotation Xrotation Yrotation
                JOINT rPinky2
                {
                  OFFSET -1.82734 -0.647385 -0.700984
                  CHANNELS 3 Zrotation Xrotation Yrotation
                  End Site
                  {
                    OFFSET -1.69225 -0.51767 -0.607171
                  }
                }
              }
            }
          }
        }
      }
      JOINT lCollar
      {
        OFFSET 2.68224 19.2634 -4.8768
        CHANNELS 3 Zrotation Xrotation Yrotation
        JOINT lShldr
        {
          OFFSET 8.77824 -1.95073 1.46304
          CHANNELS 3 Zrotation Xrotation Yrotation
          JOINT lForeArm
          {
            OFFSET 28.1742 -1.7115 0.48768
            CHANNELS 3 Zrotation Xrotation Yrotation
            JOINT lHand
            {
              OFFSET 22.5879 0.773209 7.07136
              CHANNELS 3 Zrotation Xrotation Yrotation
              JOINT lThumb1
              {
                OFFSET 1.2192 -0.487915 3.41376
                CHANNELS 3 Zrotation Xrotation Yrotation
                JOINT lThumb2
                {
                  OFFSET 3.37035 -0.52449 3.41376
                  CHANNELS 3 Zrotation Xrotation Yrotation
                  End Site
                  {
                    OFFSET 1.78271 -1.18214 1.43049
                  }
                }
              }
              JOINT lIndex1
              {
                OFFSET 7.75947 0.938293 5.60832
                CHANNELS 3 Zrotation Xrotation Yrotation
                JOINT lIndex2
                {
                  OFFSET 2.54057 -0.884171 1.56538
                  CHANNELS 3 Zrotation Xrotation Yrotation
                  End Site
                  {
                    OFFSET 1.62519 -0.234802 1.16502
                  }
                }
              }
              JOINT lMid1
              {
                OFFSET 8.24714 1.18213 3.41376
                CHANNELS 3 Zrotation Xrotation Yrotation
                JOINT lMid2
                {
                  OFFSET 3.10165 -0.590103 1.0647
                  CHANNELS 3 Zrotation Xrotation Yrotation
                  End Site
                  {
                    OFFSET 2.48547 -0.328903 0.83742
                  }
                }
              }
              JOINT lRing1
              {
                OFFSET 8.82822 0.546677 1.51678
                CHANNELS 3 Zrotation Xrotation Yrotation
                JOINT lRing2
                {
                  OFFSET 2.60934 -0.819778 -0.0198488
                  CHANNELS 3 Zrotation Xrotation Yrotation
                  End Site
                  {
                    OFFSET 2.33842 -0.294052 0.168128
                  }
                }
              }
              JOINT lPinky1
              {
                OFFSET 8.27202 -0.0477905 -0.4584
                CHANNELS 3 Zrotation Xrotation Yrotation
                JOINT lPinky2
                {
                  OFFSET 1.82734 -0.647385 -0.700984
                  CHANNELS 3 Zrotation Xrotation Yrotation
                  End Site
                  {
                    OFFSET 1.69225 -0.51767 -0.607171
                  }
                }
              }
            }
          }
        }
      }
    }
  }
  JOINT rButtock
  {
    OFFSET -8.77824 4.35084 1.2192
    CHANNELS 3 Zrotation Xrotation Yrotation
    JOINT rThigh
    {
      OFFSET 0 -1.70687 -2.19456
      CHANNELS 3 Zrotation Xrotation Yrotation
      JOINT rShin
      {
        OFFSET 0 -36.8199 0.73152
        CHANNELS 3 Zrotation Xrotation Yrotation
        JOINT rFoot
        {
          OFFSET 0.73152 -45.1104 -5.12064
          CHANNELS 3 Zrotation Xrotation Yrotation
          End Site
          {
            OFFSET -1.1221 -3.69964 12.103
          }
        }
      }
    }
  }
  JOINT lButtock
  {
    OFFSET 8.77824 4.35084 1.2192
    CHANNELS 3 Zrotation Xrotation Yrotation
    JOINT lThigh
    {
      OFFSET 0 -1.70687 -2.19456
      CHANNELS 3 Zrotation Xrotation Yrotation
      JOINT lShin
      {
        OFFSET 0 -36.8199 0.73152
        CHANNELS 3 Zrotation Xrotation Yrotation
        JOINT lFoot
        {
          OFFSET -0.73152 -45.1104 -5.12064
          CHANNELS 3 Zrotation Xrotation Yrotation
          End Site
          {
            OFFSET 1.1221 -3.69964 12.103
          }
        }
      }
    }
  }
}
MOTION
Frames:	4
Frame Time:	0.03333
-1.3852080330252647 33.72246026992798 0.0395743059925735 -2.719393714263679 2.053001398692919 1.2937710174892303 -0.18826962879890577 8.479145392268277 1.8318172483662807 2.1534901299699087 -4.192824320133632 0.7673062261235828 -2.8481545195060556 7.679540268776762 -0.7348116545081 4.2207427183660595 -13.341890034122393 -1.9261306348599323 0.22886928708166648 0.6467025877409057 -0.9832840647553791 -0.48101228367759274 0.7976775160416907 0.29585073779658655 0.32741434929211133 0.9442908349488937 0.6558963425288602 23.083269752934658 16.00412360276953 8.253750003431502 -12.325895979988411 -15.324017761449262 32.694988575637986 -2.3246028038214184 -5.473378921578888 -2.324627136370337 0.45175063269534743 0.430267393238983 0.48407364916878654 0.08528553059733444 0.6162933582563925 1.0577915034815806 0.07378031706428598 -0.08568527008655209 0.004716285642533472 4.014201212959459 1.8078390155113047 0.8412479330874367 0.446868168016699 -0.2710555236034271 0.27641348684218475 1.7304284262227305 1.3648833185894065 -0.769546047923671 0.24427024308213455 -0.3234495845614776 -0.10576448545176236 5.040108859786891 -0.5165728631784707 -0.8806753067930412 -0.0261281949787962 0.09125010001175386 0.9247348294163835 1.1214252810491216 0.22493429770694578 -0.25777566150536535 0.3880170703329006 0.8039525388982284 0.2540175633579774 -28.651004322802688 16.023637453228254 -11.395682271640618 12.30181614806953 -14.676782205509685 -30.50006630471937 2.119132997784275 -5.8874762154838365 2.6295515403554472 0.8964053391732862 0.09951341494806604 0.2711056828051444 0.058253896358458616 1.0352261592894452 0.3933423233688363 0.06315509736657829 -0.07597314129319065 -0.5569603053492851 -3.848709571351458 2.9082779000053276 -0.08289919323542158 0.7200360343426584 0.6773055704822653 -0.9368873367754229 -1.1068742033526442 -0.8910278458623706 -0.9979854066135968 -0.21170690266748884 0.5563766443403664 0.33390286892106474 -4.705306220164383 -0.5808567893776325 0.35373896557039824 0.8417694820635907 -0.8166660822645608 -0.6350774456909853 -1.0664125895963117 0.5380471913724024 -0.11330760896692825 -0.806433391670824 0.6475966488310898 -0.46306137260003566 -15.280816814948933 -18.21326632754011 -14.191821698965855 -2.809998734924837 30.96137728126203 3.332850996549783 -1.6826881786886916 -5.258784623140842 -4.65443667877342 0.774445267910127 -1.164113109588055 0.04748519599743437 17.63526498412237 -17.952974648460096 15.687520429077342 2.106243577046815 30.585068008940176 -2.440209731939408 3.4364594167301754 -4.344479279143656 6.519859098186399
-2.4181103333830833 40.50840437412262 0.01969167497009039 -3.411053247451844 2.5670525346854802 1.375697215592829 -0.7305663717738198 9.950666960265211 2.2449286471532197 2.3909862661384187 -5.513174165004321 0.9537979246650224 -3.0116722364439226 9.481317704843091 -1.2927918458386856 5.118685490432833 -15.83191745832058 -2.7032490680564734 0.11219282070876167 0.3848796656263376 -0.6147799911075587 -0.19039781969474653 0.5616700409471262 0.23773983518366187 0.18422140769435094 0.5893419120391982 0.41686629528315355 28.470226290945376 19.021561159203177 9.89199392774751 -14.86898885139572 -18.406990982969184 39.75660504529828 -2.83860762259367 -6.772403635200328 -2.843734106452588 0.27477883047473034 0.2837500705061305 0.25088149267273663 -0.0562558392426051 0.47849754676341155 0.8344137418534572 0.22068114424686414 -0.22053652299531704 -0.0652227970655608 4.9282354838239595 2.647885048748231 0.7082010774191716 0.33919685249720644 -0.4969902305803682 0.3524076122907747 1.8755161583457876 1.1795418665928792 -0.539688624568174 0.0842393377155589 -0.31930760843839373 -0.1018192241128602 6.254766223006687 -0.208023336291376 -0.752969659055726 0.06260459345762451 -0.09991195381809363 0.6186529218103675 1.1963075264060277 -0.08905163287265601 -0.21026742695969544 0.2592492214579427 0.6899941409694449 0.16430628362188626 -34.583515390579 19.395882846476553 -14.45009334959884 14.748297701214304 -17.740279142611314 -37.48620235386185 2.7652831939760563 -7.616937316165363 3.0542176982273435 0.6527273481973859 -0.006876933277145026 -0.031203825944909034 -0.08050370448723794 0.7324311734997919 0.29358735717994716 0.1287148615480374 -0.09477475776795813 -0.3423582162267174 -4.646267345639262 3.5733334194894693 -0.1463297459947284 0.49750719052317355 0.6573638193442081 -0.8742934555090163 -1.43955286758669 -0.39029621908156925 -0.6128572928562 -0.2698112552357212 0.37133097155141237 0.01633183607914674 -5.732728461440265 -0.1842849071092909 0.17646519428327256 0.9450113131846242 -0.6080136215176032 -0.4408653922316098 -1.542993734689006 0.13689822858650605 0.0860797001709071 -0.577407116959953 0.6474195441603455 -0.4591428183680053 -18.844894901226212 -22.21224304883961 -17.126682268334047 -3.5902539324977063 37.776089242615534 3.8078705896434824 -2.3050761467579983 -6.334695231108292 -5.970895023364494 0.718277740879056 -0.7741502891153471 -0.08794519558796683 21.81761862425837 -21.348616854710276 18.865255695142018 2.5162118081550786 37.55192926424488 -3.289782384964621 3.920308309986586 -5.584983785730073 8.085231307360717
-3.15238730981946 45.943307876586914 0.018288346473127604 -4.007742842212389 2.9488978887730397 1.5475500044739332 -1.1567719368907607 11.074255276847111 2.6077564067139365 2.4962892135632093 -6.564495665072902 1.105837615424389 -3.263800558805304 10.930865700506448 -1.7402533331786765 5.827709498925286 -17.84334328209222 -3.2501297217381118 -0.004415743978839689 0.2313528078969066 -0.3197660848864309 -0.019105639934112385 0.37066129284763377 0.1813305568085695 0.036309178906082006 0.33602086789400337 0.24238591128400439 32.7973457905398 21.40909134962157 11.257919063628755 -16.93656224523945 -20.95629078878474 45.525983874938014 -3.2805603489246344 -7.800962249199371 -3.329395988046814 0.10550443800530603 0.1867270199026878 0.06407827347212088 -0.06056083277127009 0.30626648279616514 0.6046405219238218 0.33027278345976163 -0.3114557723789352 -0.10977158534905827 5.661668880862745 3.3217707221687296 0.5557943707136227 0.16716562492403575 -0.5746702388151876 0.40470791823029617 2.0787941139895914 1.0321295222744906 -0.28072034800070095 -0.004206382672522931 -0.2838766424491873 -0.1151818822442885 7.210904768122908 0.08052371480707196 -0.6109321933664614 0.13221846844777627 -0.2268275407675087 0.35613444097836866 1.2652768556541123 -0.33821415903037083 -0.16615347626640448 0.1548845179095297 0.5683011941358566 0.1392145698496395 -39.347333280041944 22.084402398144483 -16.964014483061025 16.685634755511522 -20.200016385387787 -43.15421776112401 3.264324989267514 -9.02942726671317 3.3975192276114634 0.4815265222169007 -0.07003137030316879 -0.248560348932843 -0.19276373319021547 0.47157717775201347 0.22853135280030953 0.13134443101763943 -0.08141872305239486 -0.20091945930688673 -5.328992564506226 4.0591404426035576 -0.18153985141382015 0.3349612814381523 0.5747935557462182 -0.7823465161193625 -1.6982041273271393 0.023534270558925187 -0.35397498062273397 -0.26518716380676965 0.2608442840725523 -0.08028898041520567 -6.639432658664873 0.14303205862629484 0.132191374474721 0.926575565397702 -0.39922978635082856 -0.29214736120383805 -1.8352658535669024 -0.15596331427242147 0.1753097183747768 -0.4018331022808084 0.5961584408308709 -0.4728880938249799 -21.756686506672686 -25.395719088901686 -19.476205871115905 -4.165987226224183 43.257712202522626 4.235769988313733 -2.7692940091227345 -7.16854137356955 -7.01310675862757 0.6566084964715398 -0.48544374242760874 -0.16820322670849588 25.24327609681617 -24.013760083943836 21.412567915909104 2.9284828802306944 43.1356567220545 -3.9441337173588833 4.255206999144297 -6.626739178979228 9.3998198876665
-3.6386532709002495 50.31622648239136 0.07260306738317013 -4.505074102003581 3.2457887096337457 1.7259524111605506 -1.507507273412793 11.943111688333387 2.9149936835067427 2.523899186065928 -7.388884983741454 1.2125602817011902 -3.532848753844688 12.084696387185874 -2.0916846019441095 6.399485978688209 -19.46391153060988 -3.620733224782065 -0.10777262109870561 0.1439693953681733 -0.09876293457279765 0.08145993097103973 0.21890863011596648 0.13256818213740884 -0.10061637043710409 0.1597249342361002 0.09920871113784677 36.277696002876475 23.296829277713446 12.393934055631847 -18.61925277180567 -23.045964967235342 50.23447381702927 -3.6617442418797603 -8.619838751434077 -3.7490797363625976 -0.040595015888559224 0.13643188141266754 -0.08855148159851126 -7.545224598748461e-05 0.1465650806961897 0.3897269121420781 0.40174623081230226 -0.3746298461988227 -0.1400669961343556 6.244516243496613 3.8711924196650243 0.4118799903847798 -0.011196841164192972 -0.5837954249071776 0.43714432651612806 2.2814543644003322 0.9097229273943418 -0.05147214550265742 -0.04874716682808679 -0.23282140529016512 -0.14548599084860703 7.978398611005255 0.3275163218819855 -0.4529791062505977 0.18823498426516647 -0.30026231962890076 0.1385667157346932 1.3113331413926255 -0.5397665314133945 -0.1426941510253643 0.07566873096766227 0.45910744012253873 0.14312058428124055 -43.18135751779106 24.23613738294111 -19.01207402644603 18.231800045852943 -22.170515715652712 -47.73976429815503 3.6647943482309944 -10.17480388674741 3.6638765415612737 0.36181443696432186 -0.10648910582369857 -0.39544004521767645 -0.28399024770499165 0.2469283072471802 0.18160816664573348 0.10097126679957369 -0.055831637137390366 -0.11290051902022491 -5.911590198348566 4.434328710127882 -0.21703421009626078 0.21000734616270603 0.4629930707083355 -0.6854470492512146 -1.9028445989886549 0.356198740806102 -0.17572337170638572 -0.22756896313799888 0.19299371846617452 -0.07873628631779137 -7.407809730384267 0.39350854242559086 0.13072848669272177 0.8457908626591415 -0.2059487730526904 -0.17097334866461208 -2.013766444222839 -0.38361490669112164 0.20664406496585655 -0.28187891883866434 0.5324670869030607 -0.4904568344741337 -24.128298941230366 -27.957562537127973 -21.37851259270742 -4.589559700055231 47.67875021829931 4.607853934860287 -3.134409668611994 -7.816108193683874 -7.859648942095413 0.5945701016837256 -0.26725633759931333 -0.20678712541245658 28.027995447849143 -26.124531009193312 23.464534327499354 3.299260979985306 47.62612361074436 -4.453661987460427 4.472738705812272 -7.486338122819196 10.482071045617836
